{"title":"Supernatural S11E08 1080p HDTV X264-DIMENSION[rartv]","uid":12890896,"size":2018029186,"categoryP":"video","categoryS":"hd___tv_shows","magnet":"?xt=urn:btih:a3cc525f19837c85d5bb9d0040fb5e2a430b0888&amp;dn=Supernatural+S11E08+1080p+HDTV+X264-DIMENSION%5Brartv%5D&amp;tr=udp%3A%2F%2Ftracker.leechers-paradise.org%3A6969&amp;tr=udp%3A%2F%2Fzer0day.ch%3A1337&amp;tr=udp%3A%2F%2Fopen.demonii.com%3A1337&amp;tr=udp%3A%2F%2Ftracker.coppersurfer.tk%3A6969&amp;tr=udp%3A%2F%2Fexodus.desync.com%3A6969","seeders":2,"leechers":3,"uploader":"cheerfulcaca","files":3,"time":1449117598,"description":"SEASON 11, EPISODE 8 &quot;JUST MY IMAGINATION&quot; OFFICIAL SYNOPSIS:\n\nSam is shocked when his childhood imaginary friend Sully (guest star Nate Torrence) makes an unexpected appearance. Sam can’t understand why he’d see Sully now but what’s even more surprising is that Dean can see him, too. Flashbacks reveal young Sam’s friendship with Sully and why he needed him.\n\n\nSERIES INFO:\n\n8.6/10 IMDb\n9.1/10 TV.com\n\nThis haunting series follows the thrilling yet terrifying journeys of Sam and Dean Winchester, two brothers who face an increasingly sinister landscape as they hunt monsters. After losing their mother to a supernatural force, the brothers were raised by their father as soldiers who track mysterious and demonic creatures. Violent memories and relationship-threatening secrets add additional burdens on Sam and Dean as they investigate all things that go bump in the night. As old tricks and tools are rendered useless and friends betray them, the brothers must rely on each other as they encounter new enemies.\n\n\nMEDIA INFO:\n\nGeneral\nUnique ID                                : 326715118766693907681135004708097818015 (0xF5CB0B056F590DE3471C44CFA410FD9F)\nComplete name                            : Supernatural.S11E08.1080p.HDTV.X264-DIMENSION.mkv\nFormat                                   : Matroska\nFormat version                           : Version 4 / Version 2\nFile size                                : 1.88 GiB\nDuration                                 : 42mn 24s\nOverall bit rate                         : 6 341 Kbps\nEncoded date                             : UTC 2015-12-02 22:00:26\nWriting application                      : mkvmerge v8.4.0 ('A better way to fly') 64bit\nWriting library                          : libebml v1.3.1 + libmatroska v1.4.2\nIsTruncated                              : Yes\n\nVideo\nID                                       : 1\nFormat                                   : AVC\nFormat/Info                              : Advanced Video Codec\nFormat profile                           :   \nFormat settings, CABAC                   : Yes\nFormat settings, ReFrames                : 4 frames\nCodec ID                                 : V_MPEG4/ISO/AVC\nDuration                                 : 42mn 24s\nBit rate                                 : 5 831 Kbps\nWidth                                    : 1 920 pixels\nHeight                                   : 1 080 pixels\nDisplay aspect ratio                     : 16:9\nFrame rate mode                          : Constant\nFrame rate                               : 23.976 (24000/1001) fps\nColor space                              : YUV\nChroma subsampling                       : 4:2:0\nBit depth                                : 8 bits\nScan type                                : Progressive\nBits/(Pixel*Frame)                       : 0.117\nStream size                              : 1.73 GiB (92%)\nWriting library                          : x264 core 148 r2638 7599210\nEncoding settings                        : cabac=1 / ref=4 / deblock=1:-3:-3 / analyse=0x3:0x133 / me=umh / subme=11 / psy=1 / psy_rd=1.00:0.00 / mixed_ref=1 / me_range=32 / chroma_me=1 / trellis=2 / 8x8dct=1 / cqm=0 / deadzone=21,11 / fast_pskip=0 / chroma_qp_offset=-2 / threads=20 / lookahead_threads=2 / sliced_threads=0 / nr=0 / decimate=1 / interlaced=0 / bluray_compat=0 / constrained_intra=0 / bframes=5 / b_pyramid=2 / b_adapt=2 / b_bias=0 / direct=3 / weightb=1 / open_gop=0 / weightp=2 / keyint=250 / keyint_min=23 / scenecut=40 / intra_refresh=0 / rc_lookahead=60 / rc=crf / mbtree=1 / crf=17.0 / qcomp=0.60 / qpmin=0 / qpmax=69 / qpstep=4 / ip_ratio=1.40 / aq=1:1.00\nLanguage                                 : English\nDefault                                  : Yes\nForced                                   : No\nColor range                              : Limited\nMatrix coefficients                      : BT.709\n\nAudio\nID                                       : 2\nFormat                                   : AC-3\nFormat/Info                              : Audio Coding 3\nMode extension                           : CM (complete main)\nFormat settings, Endianness              : Big\nCodec ID                                 : A_AC3\nDuration                                 : 42mn 24s\nBit rate mode                            : Constant\nBit rate                                 : 384 Kbps\nChannel(s)                               : 6 channels\nChannel positions                        : Front: L C R, Side: L R, LFE\nSampling rate                            : 48.0 KHz\nFrame rate                               : 31.250 fps (1536 spf)\nCompression mode                         : Lossy\nStream size                              : 116 MiB (6%)\nDefault                                  : Yes\nForced                                   : No \nhttps://rarbg.to","torrent":{"xt":"urn:btih:a3cc525f19837c85d5bb9d0040fb5e2a430b0888","amp;dn":"Supernatural+S11E08+1080p+HDTV+X264-DIMENSION%5Brartv%5D","amp;tr":["udp%3A%2F%2Ftracker.leechers-paradise.org%3A6969","udp%3A%2F%2Fzer0day.ch%3A1337","udp%3A%2F%2Fopen.demonii.com%3A1337","udp%3A%2F%2Ftracker.coppersurfer.tk%3A6969","udp%3A%2F%2Fexodus.desync.com%3A6969"],"infoHash":"a3cc525f19837c85d5bb9d0040fb5e2a430b0888","infoHashBuffer":{"type":"Buffer","data":[163,204,82,95,25,131,124,133,213,187,157,0,64,251,94,42,67,11,8,136]},"announce":[],"urlList":[]}}